<!DOCTYPE svg PUBLIC "-//W3C//DTD SVG 1.1//EN" "http://www.w3.org/Graphics/SVG/1.1/DTD/svg11.dtd">
<!-- Uploaded to: SVG Repo, www.svgrepo.com, Transformed by: SVG Repo Mixer Tools -->
<svg height="256px" width="256px" version="1.1" id="_x32_" xmlns="http://www.w3.org/2000/svg" xmlns:xlink="http://www.w3.org/1999/xlink" viewBox="0 0 512 512" xml:space="preserve" fill="#ff0000" stroke="#ff0000">
<g id="SVGRepo_bgCarrier" stroke-width="0"/>
<g id="SVGRepo_tracerCarrier" stroke-linecap="round" stroke-linejoin="round" stroke="#ffffff" stroke-width="8.192"/>
<g id="SVGRepo_iconCarrier"> <style type="text/css"> .st0{fill:#ff0000;} </style> <g> <path class="st0" d="M0,74.451v363.098h512V74.451H0z M71.524,167.241H47.957c-4.215,0-7.633-3.417-7.633-7.632v-42.974 c0-4.215,3.418-7.631,7.633-7.631h23.566c4.215,0,7.631,3.416,7.631,7.631v42.974C79.154,163.824,75.738,167.241,71.524,167.241z M47.957,221.844h23.566c4.215,0,7.631,3.417,7.631,7.633v42.974c0,4.215-3.416,7.632-7.631,7.632H47.957 c-4.215,0-7.633-3.417-7.633-7.632v-42.974C40.324,225.261,43.742,221.844,47.957,221.844z M47.957,344.758h23.566 c4.215,0,7.631,3.418,7.631,7.632v42.975c0,4.215-3.416,7.632-7.631,7.632H47.957c-4.215,0-7.633-3.417-7.633-7.632V352.39 C40.324,348.176,43.742,344.758,47.957,344.758z M198.982,326.856V185.144c0-5.875,6.359-9.547,11.447-6.609l122.725,70.856 c5.088,2.937,5.088,10.281,0,13.218L210.43,333.465C205.342,336.402,198.982,332.73,198.982,326.856z M464.041,167.241h-23.565 c-4.215,0-7.633-3.417-7.633-7.632v-42.974c0-4.215,3.418-7.631,7.633-7.631h23.565c4.215,0,7.631,3.416,7.631,7.631v42.974 C471.672,163.824,468.256,167.241,464.041,167.241z M440.476,221.844h23.565c4.215,0,7.631,3.417,7.631,7.633v42.974 c0,4.215-3.416,7.632-7.631,7.632h-23.565c-4.215,0-7.633-3.417-7.633-7.632v-42.974 C432.844,225.261,436.262,221.844,440.476,221.844z M440.476,344.758h23.565c4.215,0,7.631,3.418,7.631,7.632v42.975 c0,4.215-3.416,7.632-7.631,7.632h-23.565c-4.215,0-7.633-3.417-7.633-7.632V352.39 C432.844,348.176,436.262,344.758,440.476,344.758z"/> </g> </g>
</svg>